<svg width="746" height="151" viewBox="0 0 746 151" fill="none" xmlns="http://www.w3.org/2000/svg">
<path d="M194.5 0L131 150.5H258L194.5 0Z" fill="white"/>
<path d="M557.5 0L494 150.5H621L557.5 0Z" fill="white"/>
<path d="M39.5 0V150.5C66.5 150.5 112.5 150.5 112.5 71.5C112.5 0 63 -0.000108119 39.5 0Z" fill="white"/>
<path d="M23 0V150.5H0V0H23Z" fill="white"/>
<path d="M289.5 29V150.5H317.5V29H367V0H236L247.5 29H289.5Z" fill="white"/>
<path d="M462.5 29V150.5H434.5V29H385V0H516L504.5 29H462.5Z" fill="white"/>
<path d="M640 0V150.5H668.5V0H640Z" fill="white"/>
<path d="M682 77.5V150.5H746L682 77.5Z" fill="white"/>
<path d="M682 0C695.667 0 728.5 1 728.5 45.1747C728.5 69.5509 719.489 80.8811 709 86.2105L682 56.6747V0Z" fill="white"/>
</svg>
